<?xml version="1.0" encoding="utf-8"?>
<!-- Generator: Adobe Illustrator 16.0.3, SVG Export Plug-In . SVG Version: 6.00 Build 0)  -->
<!DOCTYPE svg PUBLIC "-//W3C//DTD SVG 1.1//EN" "http://www.w3.org/Graphics/SVG/1.1/DTD/svg11.dtd">
<svg version="1.1" id="Layer_1" xmlns="http://www.w3.org/2000/svg" xmlns:xlink="http://www.w3.org/1999/xlink" x="0px" y="0px"
	 width="1200px" height="213px" viewBox="0 0 1200 213" enable-background="new 0 0 1200 213" xml:space="preserve">
<g>
	<path fill="#50646F" d="M38.799,208.209c-8.063,0-14.309,1.104-22.248-2.199c-7.082-2.932-10.666-9.67-13.191-16.057
		c-2.522-6.387-3.625-13.074-3.307-20.1c0.332-7.002,1.728-17.521,4.201-31.549l10.682-60.588
		c3.434-19.479,6.88-33.626,10.338-42.442c3.45-8.816,10.327-16.902,20.62-24.251C56.198,3.677,68.484,0,82.766,0
		c14.048,0,25.149,3.2,33.293,9.573c8.138,6.383,12.835,13.969,14.103,22.737c1.264,8.779,0.421,21.524-2.525,38.231l-1.551,8.813
		h-47.97l3.266-18.514c2.055-11.669,2.884-18.975,2.498-21.921c-0.394-2.933-2.299-4.406-5.718-4.406
		c-2.968,0-5.202,1.261-6.706,3.779c-1.507,2.522-3.179,8.983-5.016,19.397l-17.259,97.871c-1.613,9.16-2.142,15.184-1.59,18.078
		c0.548,2.904,2.426,4.342,5.612,4.342c3.495,0,6.161-1.629,7.99-4.898c1.83-3.289,3.577-9.676,5.249-19.16l4.267-24.182h-9.683
		l5.464-30.986h56.172l-19.297,109.455H73.223"/>
	<path fill="#50646F" d="M194.194,4.287l-35.956,203.922h-47.965L146.229,4.287H194.194z"/>
	<path fill="#50646F" d="M249.752,4.287l-28.761,163.122l22.901,0.02c0,0-7.12,29.152,16.077,40.781h-94.139L201.787,4.287H249.752z
		"/>
	<path fill="#50646F" d="M368.031,66.005h-44.553l2.662-15.11c1.244-7.052,1.477-11.546,0.668-13.479
		c-0.792-1.939-2.519-2.903-5.178-2.903c-2.891,0-5.304,1.305-7.246,3.909c-1.943,2.604-3.375,6.555-4.308,11.848
		c-1.202,6.809-1.274,11.938-0.22,15.378c0.987,3.45,4.77,7.6,11.359,12.472c18.879,14.011,30.306,25.505,34.267,34.487
		c3.958,8.989,4.176,23.471,0.65,43.459c-2.563,14.527-5.985,25.238-10.276,32.119c-4.289,6.887-11.249,12.664-20.887,17.33
		c-9.632,4.652-20.301,6.977-31.988,6.977c-12.845,0-23.326-2.68-31.454-8.059c-8.138-5.359-12.869-12.219-14.216-20.531
		c-1.339-8.318-0.664-20.113,2.028-35.4l2.354-13.342h44.55l-4.375,24.813c-1.347,7.633-1.586,12.553-0.72,14.74
		c0.871,2.18,2.899,3.268,6.092,3.268c3.184,0,5.804-1.377,7.851-4.145c2.048-2.783,3.552-6.895,4.519-12.355
		c2.114-12.006,2.015-19.857-0.294-23.553c-2.39-3.693-8.782-9.861-19.182-18.516c-10.388-8.734-17.169-15.067-20.345-19.018
		c-3.18-3.952-5.427-9.404-6.74-16.377c-1.319-6.965-1.025-15.871,0.888-26.705c2.755-15.614,6.571-27.034,11.461-34.26
		c4.875-7.223,11.701-12.863,20.469-16.937C304.643,2.038,314.723,0,326.119,0c12.451,0,22.676,2.231,30.666,6.678
		c7.991,4.454,12.811,10.06,14.47,16.813c1.655,6.767,1.052,18.252-1.805,34.455L368.031,66.005z"/>
	<path fill="#50646F" d="M474.827,123.694c-3.614,20.489-6.606,35.003-8.977,43.517c-2.385,8.523-6.491,16.32-12.325,23.365
		c-5.842,7.059-13.006,12.48-21.498,16.256c-8.49,3.775-17.937,5.66-28.342,5.66c-9.878,0-18.434-1.775-25.66-5.352
		c-7.232-3.57-12.619-8.91-16.145-16.057c-3.523-7.133-5.005-14.896-4.434-23.299c0.573-8.402,2.704-23.094,6.407-44.091
		l6.15-34.887c3.615-20.493,6.606-35,8.984-43.525c2.371-8.518,6.482-16.31,12.321-23.364c5.846-7.052,13.006-12.469,21.5-16.251
		C421.297,1.887,430.74,0,441.156,0c9.868,0,18.422,1.786,25.656,5.355c7.233,3.573,12.612,8.922,16.135,16.063
		c3.532,7.141,5.003,14.904,4.44,23.299c-0.568,8.401-2.707,23.098-6.41,44.09L474.827,123.694z M438.675,56.686
		c1.676-9.491,2.269-15.553,1.786-18.198c-0.483-2.651-2.204-3.974-5.164-3.974c-2.508,0-4.619,1.069-6.325,3.213
		c-1.704,2.145-3.488,8.464-5.338,18.958l-16.79,95.221c-2.086,11.842-2.936,19.146-2.549,21.93c0.38,2.768,2.172,4.145,5.358,4.145
		c3.265,0,5.637-1.588,7.11-4.775c1.477-3.199,3.272-10.793,5.389-22.811L438.675,56.686z"/>
	<path fill="#50646F" d="M609.215,4.287l-35.956,203.922h-42.042l-8.617-92.705l-16.344,92.705h-40.105L502.107,4.287h40.103
		l10.703,91.822l16.193-91.822H609.215z"/>
	<path fill="#CFDE00" d="M608.762,4.287h35.894c23.163,0,38.623,1.175,46.38,3.525c7.744,2.354,13.267,6.212,16.583,11.591
		c3.305,5.369,4.907,11.352,4.811,17.944c-0.101,6.598-1.85,19.547-5.254,38.858l-12.589,71.417
		c-3.236,18.311-6.182,30.551-8.813,36.727c-2.646,6.172-6.21,10.996-10.705,14.484c-4.502,3.48-9.702,5.922-15.652,7.314
		c-5.927,1.377-14.636,2.061-26.094,2.061h-60.516L608.762,4.287z M650.577,39.176l-23.655,134.152
		c6.914,0,11.443-1.541,13.582-4.605c2.124-3.068,4.386-11.402,6.784-25.004l13.98-79.224c1.622-9.235,2.411-15.155,2.322-17.756
		c-0.063-2.607-0.938-4.519-2.624-5.729C659.28,39.79,655.826,39.176,650.577,39.176z"/>
	<path fill="#CFDE00" d="M726.08,4.287h79.986l-7.195,40.808h-32.03l-6.825,38.666h29.974l-6.839,38.797h-29.974l-7.909,44.851
		h31.988c0,0-6.14,28.061,15.009,40.801H690.131L726.08,4.287z"/>
	<path fill="#CFDE00" d="M902.113,66.005H857.57l2.672-15.11c1.234-7.052,1.468-11.55,0.665-13.479
		c-0.802-1.939-2.542-2.903-5.188-2.903c-2.892,0-5.312,1.305-7.251,3.909c-1.938,2.604-3.37,6.555-4.304,11.848
		c-1.205,6.809-1.272,11.938-0.205,15.378c0.973,3.45,4.764,7.6,11.334,12.472c18.9,14.011,30.317,25.505,34.278,34.487
		c3.961,8.989,4.18,23.471,0.65,43.459c-2.556,14.527-5.982,25.238-10.271,32.119c-4.29,6.887-11.266,12.664-20.887,17.33
		c-9.642,4.652-20.306,6.977-31.995,6.977c-12.835,0-23.328-2.68-31.447-8.059c-8.142-5.359-12.878-12.219-14.214-20.531
		c-1.349-8.318-0.671-20.113,2.016-35.4l2.357-13.342h44.55l-4.38,24.813c-1.342,7.633-1.574,12.553-0.698,14.74
		c0.856,2.18,2.892,3.268,6.077,3.268c3.193,0,5.804-1.377,7.854-4.145c2.05-2.783,3.557-6.895,4.517-12.355
		c2.11-12.006,2.014-19.857-0.289-23.553c-2.392-3.693-8.799-9.861-19.187-18.516c-10.39-8.734-17.166-15.067-20.353-19.018
		c-3.167-3.952-5.429-9.404-6.738-16.377c-1.321-6.965-1.006-15.871,0.898-26.705c2.755-15.614,6.565-27.034,11.444-34.26
		c4.893-7.223,11.704-12.87,20.489-16.937C838.725,2.038,848.812,0,860.201,0c12.458,0,22.685,2.231,30.672,6.678
		c7.992,4.454,12.809,10.06,14.475,16.813c1.644,6.767,1.04,18.252-1.81,34.455L902.113,66.005z"/>
	<path fill="#CFDE00" d="M968.339,4.287l-35.965,203.922h-47.968L920.354,4.287H968.339z"/>
	<path fill="#CFDE00" d="M1200,4.287l-35.964,203.922h-42.047l-8.607-92.705l-16.337,92.705h-40.117l35.965-203.922h40.101
		l10.705,91.822l16.187-91.822H1200z"/>
	<path fill="#CFDE00" d="M985.469,208.209c-8.059,0-14.309,1.104-22.251-2.199c-7.078-2.932-10.67-9.67-13.191-16.057
		c-2.521-6.387-3.631-13.074-3.303-20.1c0.329-7.002,1.727-17.521,4.201-31.549l10.683-60.588
		c3.439-19.479,6.881-33.626,10.329-42.442c3.46-8.816,10.339-16.902,20.625-24.251C1002.862,3.677,1015.154,0,1029.423,0
		c14.048,0,25.148,3.2,33.305,9.573c8.14,6.383,12.826,13.969,14.103,22.737c1.246,8.779,0.411,21.524-2.536,38.231l-1.556,8.813
		h-47.949l3.263-18.514c2.057-11.669,2.878-18.975,2.481-21.921c-0.378-2.933-2.289-4.406-5.703-4.406
		c-2.973,0-5.193,1.261-6.701,3.779c-1.521,2.522-3.18,8.983-5.018,19.397l-17.26,97.871c-1.611,9.16-2.145,15.184-1.59,18.078
		c0.554,2.904,2.426,4.342,5.604,4.342c3.495,0,6.154-1.629,7.997-4.898c1.829-3.289,3.577-9.676,5.248-19.16l4.264-24.182h-9.689
		l5.469-30.986h56.165l-19.298,109.455h-30.138"/>
</g>
</svg>
