<?xml version="1.0" encoding="utf-8"?>
<!-- Generator: Adobe Illustrator 16.0.3, SVG Export Plug-In . SVG Version: 6.00 Build 0)  -->
<!DOCTYPE svg PUBLIC "-//W3C//DTD SVG 1.1//EN" "http://www.w3.org/Graphics/SVG/1.1/DTD/svg11.dtd">
<svg version="1.1" id="Layer_1" xmlns="http://www.w3.org/2000/svg" xmlns:xlink="http://www.w3.org/1999/xlink" x="0px" y="0px"
	 width="800px" height="545px" viewBox="0 0 800 545" enable-background="new 0 0 800 545" xml:space="preserve">
<g>
	<g>
		<path fill="#1D2C33" d="M672.328,272.333c0,150.439-121.896,272.383-272.322,272.383c-150.415,0-272.359-121.944-272.359-272.383
			S249.592,0,400.006,0C550.433,0,672.328,121.895,672.328,272.333z"/>
		<polygon fill="#1D2C33" points="800,416.05 0,416.05 40.486,273.523 0,128.667 800,128.667 756.505,272.358 		"/>
		<path fill="#CFDE00" d="M630.386,272.333c0,127.284-103.108,230.441-230.379,230.441c-127.248,0-230.417-103.157-230.417-230.441
			c0-127.259,103.169-230.392,230.417-230.392C527.277,41.941,630.386,145.074,630.386,272.333z"/>
	</g>
	<g>
		<path fill="#243842" d="M295.138,394.205c-9.442,0-16.759,1.311-26.056-2.55c-8.289-3.445-12.5-11.334-15.45-18.811
			c-2.961-7.5-4.247-15.315-3.883-23.544c0.4-8.18,2.027-20.534,4.927-36.967l12.513-70.996
			c4.029-22.792,8.058-39.345,12.124-49.686c4.029-10.34,12.1-19.806,24.151-28.423c12.076-8.616,26.457-12.888,43.193-12.888
			c16.444,0,29.454,3.713,38.993,11.214c9.54,7.476,15.049,16.36,16.53,26.626c1.479,10.267,0.497,25.243-2.95,44.783l-1.832,10.316
			h-56.19l3.822-21.676c2.415-13.689,3.386-22.233,2.925-25.679c-0.449-3.447-2.706-5.17-6.687-5.17
			c-3.47,0-6.092,1.481-7.852,4.417c-1.772,2.962-3.738,10.511-5.875,22.719L307.31,332.529c-1.893,10.776-2.512,17.815-1.88,21.214
			c0.643,3.398,2.852,5.072,6.589,5.072c4.09,0,7.209-1.894,9.357-5.753c2.147-3.834,4.199-11.334,6.165-22.427l4.988-28.325
			h-11.335l6.384-36.288h65.813l-22.597,128.182h-35.316"/>
		<path fill="#243842" d="M428.829,155.342h42.04c27.185,0,45.292,1.383,54.37,4.126c9.077,2.743,15.533,7.307,19.417,13.568
			c3.883,6.287,5.728,13.325,5.632,21.044c-0.098,7.718-2.137,22.888-6.166,45.51l-14.757,83.666
			c-3.738,21.48-7.186,35.753-10.292,43.035c-3.059,7.208-7.281,12.863-12.573,16.989c-5.242,4.03-11.359,6.918-18.301,8.545
			c-6.942,1.602-17.137,2.379-30.583,2.379h-70.887L428.829,155.342z M477.859,196.192l-27.72,157.187
			c8.107,0,13.398-1.796,15.923-5.413c2.477-3.592,5.098-13.35,7.913-29.297l16.408-92.792c1.894-10.825,2.768-17.743,2.719-20.801
			c-0.098-3.033-1.117-5.292-3.107-6.723C488.054,196.92,484.024,196.192,477.859,196.192z"/>
	</g>
</g>
</svg>
